<?xml version="1.0" encoding="UTF-8" standalone="no"?><svg xmlns="http://www.w3.org/2000/svg" xmlns:xlink="http://www.w3.org/1999/xlink" contentScriptType="application/ecmascript" contentStyleType="text/css" height="856px" preserveAspectRatio="none" style="width:551px;height:856px;background:#FFFFFF;" version="1.1" viewBox="0 0 551 856" width="551px" zoomAndPan="magnify"><defs><filter height="300%" id="fi5e0epi8fgz8" width="300%" x="-1" y="-1"><feGaussianBlur result="blurOut" stdDeviation="2.0"/><feColorMatrix in="blurOut" result="blurOut2" type="matrix" values="0 0 0 0 0 0 0 0 0 0 0 0 0 0 0 0 0 0 .4 0"/><feOffset dx="4.0" dy="4.0" in="blurOut2" result="blurOut3"/><feBlend in="SourceGraphic" in2="blurOut3" mode="normal"/></filter></defs><g><!--MD5=[8e95c13453fed63b2e6aa0fa1b4fbd98]
class Film--><rect codeLine="1" fill="#FEFECE" filter="url(#fi5e0epi8fgz8)" height="163.2422" id="Film" style="stroke:#A80036;stroke-width:1.5;" width="140" x="80" y="542"/><ellipse cx="133.75" cy="558" fill="#ADD1B2" rx="11" ry="11" style="stroke:#A80036;stroke-width:1.0;"/><path d="M136.0938,553.6719 C135.1563,553.2344 134.5625,553.0938 133.6875,553.0938 C131.0625,553.0938 129.0625,555.1719 129.0625,557.8906 L129.0625,559.0156 C129.0625,561.5938 131.1719,563.4844 134.0625,563.4844 C135.2813,563.4844 136.4375,563.1875 137.1875,562.6406 C137.7656,562.2344 138.0938,561.7813 138.0938,561.3906 C138.0938,560.9375 137.7031,560.5469 137.2344,560.5469 C137.0156,560.5469 136.8125,560.625 136.625,560.8125 C136.1719,561.2969 136.1719,561.2969 135.9844,561.3906 C135.5625,561.6563 134.875,561.7813 134.1094,561.7813 C132.0625,561.7813 130.7656,560.6875 130.7656,558.9844 L130.7656,557.8906 C130.7656,556.1094 132.0156,554.7969 133.75,554.7969 C134.3281,554.7969 134.9375,554.9531 135.4063,555.2031 C135.8906,555.4844 136.0625,555.7031 136.1563,556.1094 C136.2188,556.5156 136.25,556.6406 136.3906,556.7656 C136.5313,556.9063 136.7656,557.0156 136.9844,557.0156 C137.25,557.0156 137.5156,556.875 137.6875,556.6563 C137.7969,556.5 137.8281,556.3125 137.8281,555.8906 L137.8281,554.4688 C137.8281,554.0313 137.8125,553.9063 137.7188,553.75 C137.5625,553.4844 137.2813,553.3438 136.9844,553.3438 C136.6875,553.3438 136.4844,553.4375 136.2656,553.75 L136.0938,553.6719 Z " fill="#000000"/><text fill="#000000" font-family="sans-serif" font-size="12" lengthAdjust="spacing" textLength="24" x="154.25" y="562.1543">Film</text><line style="stroke:#A80036;stroke-width:1.5;" x1="81" x2="219" y1="574" y2="574"/><text fill="#000000" font-family="sans-serif" font-size="11" lengthAdjust="spacing" textLength="56" x="86" y="588.2104">String : ID</text><text fill="#000000" font-family="sans-serif" font-size="11" lengthAdjust="spacing" textLength="78" x="86" y="601.0151">String : Name</text><text fill="#000000" font-family="sans-serif" font-size="11" lengthAdjust="spacing" textLength="114" x="86" y="613.8198">Date : ReleaseDate</text><text fill="#000000" font-family="sans-serif" font-size="11" lengthAdjust="spacing" textLength="97" x="86" y="626.6245">Director :Director</text><text fill="#000000" font-family="sans-serif" font-size="11" lengthAdjust="spacing" textLength="127" x="86" y="639.4292">Int : DurationInMinutes</text><text fill="#000000" font-family="sans-serif" font-size="11" lengthAdjust="spacing" textLength="90" x="86" y="652.2339">String : Abstract</text><text fill="#000000" font-family="sans-serif" font-size="11" lengthAdjust="spacing" textLength="98" x="86" y="665.0386">List&lt;Role&gt; : Cast</text><text fill="#000000" font-family="sans-serif" font-size="11" lengthAdjust="spacing" textLength="128" x="86" y="677.8433">FilmType : TypeOfFilm</text><text fill="#000000" font-family="sans-serif" font-size="11" lengthAdjust="spacing" textLength="108" x="86" y="690.6479">Double : IMDBNote</text><line style="stroke:#A80036;stroke-width:1.5;" x1="81" x2="219" y1="697.2422" y2="697.2422"/><!--MD5=[09ce52be0ee7de43c61b6e2d59bf108b]
class Person--><rect codeLine="13" fill="#FEFECE" filter="url(#fi5e0epi8fgz8)" height="112.0234" id="Person" style="stroke:#A80036;stroke-width:1.5;" width="114" x="7" y="7"/><ellipse cx="40.9" cy="23" fill="#A9DCDF" rx="11" ry="11" style="stroke:#A80036;stroke-width:1.0;"/><path d="M42.9781,24.8125 L43.3688,25.7969 L42.9781,25.7969 C42.525,25.7969 42.4156,25.8125 42.2594,25.9219 C42.0094,26.0781 41.8531,26.3594 41.8531,26.6563 C41.8531,26.9219 41.9938,27.1719 42.2125,27.3281 C42.3531,27.4531 42.5563,27.5 42.9781,27.5 L45.3375,27.5 C45.6969,27.5 45.9156,27.4688 46.0563,27.375 C46.3063,27.2344 46.4625,26.9375 46.4625,26.6563 C46.4625,26.375 46.3219,26.125 46.1031,25.9688 C45.9313,25.8281 45.775,25.7969 45.3063,25.7969 L41.9156,17.5938 L38.2438,17.5938 C37.7906,17.5938 37.6656,17.6094 37.5094,17.7031 C37.2594,17.875 37.1031,18.1563 37.1031,18.4375 C37.1031,18.7188 37.2438,18.9688 37.4625,19.1406 C37.6344,19.25 37.8063,19.2813 38.2438,19.2813 L39.3219,19.2813 L36.6813,25.7969 C36.2594,25.7969 36.1031,25.8125 35.9469,25.9219 C35.6969,26.0781 35.5406,26.3594 35.5406,26.6563 C35.5406,27.2188 35.9156,27.5 36.6656,27.5 L38.9313,27.5 C39.2906,27.5 39.5094,27.4688 39.6344,27.375 C39.9,27.2344 40.0406,26.9375 40.0406,26.6563 C40.0406,26.375 39.9156,26.125 39.6969,25.9531 C39.525,25.8281 39.3844,25.7969 38.9313,25.7969 L38.5406,25.7969 L38.9313,24.8125 L42.9781,24.8125 Z M42.275,23.1094 L39.6031,23.1094 L40.9469,19.8438 L42.275,23.1094 Z " fill="#000000"/><text fill="#000000" font-family="sans-serif" font-size="12" font-style="italic" lengthAdjust="spacing" textLength="40" x="59.1" y="27.1543">Person</text><line style="stroke:#A80036;stroke-width:1.5;" x1="8" x2="120" y1="39" y2="39"/><text fill="#000000" font-family="sans-serif" font-size="11" lengthAdjust="spacing" textLength="56" x="13" y="53.2104">String : ID</text><text fill="#000000" font-family="sans-serif" font-size="11" lengthAdjust="spacing" textLength="101" x="13" y="66.0151">String : FirstName</text><text fill="#000000" font-family="sans-serif" font-size="11" lengthAdjust="spacing" textLength="101" x="13" y="78.8198">String : LastName</text><text fill="#000000" font-family="sans-serif" font-size="11" lengthAdjust="spacing" textLength="91" x="13" y="91.6245">Date : Birthdate</text><text fill="#000000" font-family="sans-serif" font-size="11" lengthAdjust="spacing" textLength="102" x="13" y="104.4292">Date : DeathDate</text><line style="stroke:#A80036;stroke-width:1.5;" x1="8" x2="120" y1="111.0234" y2="111.0234"/><!--MD5=[57adcbfcd00175f9b7abe25398e7de0c]
class Director--><rect codeLine="21" fill="#FEFECE" filter="url(#fi5e0epi8fgz8)" height="60.8047" id="Director" style="stroke:#A80036;stroke-width:1.5;" width="103" x="20.5" y="782"/><ellipse cx="45.4" cy="798" fill="#ADD1B2" rx="11" ry="11" style="stroke:#A80036;stroke-width:1.0;"/><path d="M47.7438,793.6719 C46.8063,793.2344 46.2125,793.0938 45.3375,793.0938 C42.7125,793.0938 40.7125,795.1719 40.7125,797.8906 L40.7125,799.0156 C40.7125,801.5938 42.8219,803.4844 45.7125,803.4844 C46.9313,803.4844 48.0875,803.1875 48.8375,802.6406 C49.4156,802.2344 49.7438,801.7813 49.7438,801.3906 C49.7438,800.9375 49.3531,800.5469 48.8844,800.5469 C48.6656,800.5469 48.4625,800.625 48.275,800.8125 C47.8219,801.2969 47.8219,801.2969 47.6344,801.3906 C47.2125,801.6563 46.525,801.7813 45.7594,801.7813 C43.7125,801.7813 42.4156,800.6875 42.4156,798.9844 L42.4156,797.8906 C42.4156,796.1094 43.6656,794.7969 45.4,794.7969 C45.9781,794.7969 46.5875,794.9531 47.0563,795.2031 C47.5406,795.4844 47.7125,795.7031 47.8063,796.1094 C47.8688,796.5156 47.9,796.6406 48.0406,796.7656 C48.1813,796.9063 48.4156,797.0156 48.6344,797.0156 C48.9,797.0156 49.1656,796.875 49.3375,796.6563 C49.4469,796.5 49.4781,796.3125 49.4781,795.8906 L49.4781,794.4688 C49.4781,794.0313 49.4625,793.9063 49.3688,793.75 C49.2125,793.4844 48.9313,793.3438 48.6344,793.3438 C48.3375,793.3438 48.1344,793.4375 47.9156,793.75 L47.7438,793.6719 Z " fill="#000000"/><text fill="#000000" font-family="sans-serif" font-size="12" lengthAdjust="spacing" textLength="49" x="61.6" y="802.1543">Director</text><line style="stroke:#A80036;stroke-width:1.5;" x1="21.5" x2="122.5" y1="814" y2="814"/><text fill="#000000" font-family="sans-serif" font-size="11" lengthAdjust="spacing" textLength="91" x="26.5" y="828.2104">List&lt;Film&gt; films</text><line style="stroke:#A80036;stroke-width:1.5;" x1="21.5" x2="122.5" y1="834.8047" y2="834.8047"/><!--MD5=[44201db48fb57df1a9c7f5b6b15426b0]
class Actor--><rect codeLine="25" fill="#FEFECE" filter="url(#fi5e0epi8fgz8)" height="60.8047" id="Actor" style="stroke:#A80036;stroke-width:1.5;" width="106" x="82" y="212"/><ellipse cx="115.9" cy="228" fill="#ADD1B2" rx="11" ry="11" style="stroke:#A80036;stroke-width:1.0;"/><path d="M118.2438,223.6719 C117.3063,223.2344 116.7125,223.0938 115.8375,223.0938 C113.2125,223.0938 111.2125,225.1719 111.2125,227.8906 L111.2125,229.0156 C111.2125,231.5938 113.3219,233.4844 116.2125,233.4844 C117.4313,233.4844 118.5875,233.1875 119.3375,232.6406 C119.9156,232.2344 120.2438,231.7813 120.2438,231.3906 C120.2438,230.9375 119.8531,230.5469 119.3844,230.5469 C119.1656,230.5469 118.9625,230.625 118.775,230.8125 C118.3219,231.2969 118.3219,231.2969 118.1344,231.3906 C117.7125,231.6563 117.025,231.7813 116.2594,231.7813 C114.2125,231.7813 112.9156,230.6875 112.9156,228.9844 L112.9156,227.8906 C112.9156,226.1094 114.1656,224.7969 115.9,224.7969 C116.4781,224.7969 117.0875,224.9531 117.5563,225.2031 C118.0406,225.4844 118.2125,225.7031 118.3063,226.1094 C118.3688,226.5156 118.4,226.6406 118.5406,226.7656 C118.6813,226.9063 118.9156,227.0156 119.1344,227.0156 C119.4,227.0156 119.6656,226.875 119.8375,226.6563 C119.9469,226.5 119.9781,226.3125 119.9781,225.8906 L119.9781,224.4688 C119.9781,224.0313 119.9625,223.9063 119.8688,223.75 C119.7125,223.4844 119.4313,223.3438 119.1344,223.3438 C118.8375,223.3438 118.6344,223.4375 118.4156,223.75 L118.2438,223.6719 Z " fill="#000000"/><text fill="#000000" font-family="sans-serif" font-size="12" lengthAdjust="spacing" textLength="32" x="134.1" y="232.1543">Actor</text><line style="stroke:#A80036;stroke-width:1.5;" x1="83" x2="187" y1="244" y2="244"/><text fill="#000000" font-family="sans-serif" font-size="11" lengthAdjust="spacing" textLength="94" x="88" y="258.2104">List&lt;Role&gt; roles</text><line style="stroke:#A80036;stroke-width:1.5;" x1="83" x2="187" y1="264.8047" y2="264.8047"/><!--MD5=[a3638c1e5b65d287ecad7f06f5c0f212]
class Role--><rect codeLine="35" fill="#FEFECE" filter="url(#fi5e0epi8fgz8)" height="60.8047" id="Role" style="stroke:#A80036;stroke-width:1.5;" width="111" x="82.5" y="385"/><ellipse cx="121.35" cy="401" fill="#ADD1B2" rx="11" ry="11" style="stroke:#A80036;stroke-width:1.0;"/><path d="M123.6938,396.6719 C122.7563,396.2344 122.1625,396.0938 121.2875,396.0938 C118.6625,396.0938 116.6625,398.1719 116.6625,400.8906 L116.6625,402.0156 C116.6625,404.5938 118.7719,406.4844 121.6625,406.4844 C122.8813,406.4844 124.0375,406.1875 124.7875,405.6406 C125.3656,405.2344 125.6938,404.7813 125.6938,404.3906 C125.6938,403.9375 125.3031,403.5469 124.8344,403.5469 C124.6156,403.5469 124.4125,403.625 124.225,403.8125 C123.7719,404.2969 123.7719,404.2969 123.5844,404.3906 C123.1625,404.6563 122.475,404.7813 121.7094,404.7813 C119.6625,404.7813 118.3656,403.6875 118.3656,401.9844 L118.3656,400.8906 C118.3656,399.1094 119.6156,397.7969 121.35,397.7969 C121.9281,397.7969 122.5375,397.9531 123.0063,398.2031 C123.4906,398.4844 123.6625,398.7031 123.7563,399.1094 C123.8188,399.5156 123.85,399.6406 123.9906,399.7656 C124.1313,399.9063 124.3656,400.0156 124.5844,400.0156 C124.85,400.0156 125.1156,399.875 125.2875,399.6563 C125.3969,399.5 125.4281,399.3125 125.4281,398.8906 L125.4281,397.4688 C125.4281,397.0313 125.4125,396.9063 125.3188,396.75 C125.1625,396.4844 124.8813,396.3438 124.5844,396.3438 C124.2875,396.3438 124.0844,396.4375 123.8656,396.75 L123.6938,396.6719 Z " fill="#000000"/><text fill="#000000" font-family="sans-serif" font-size="12" lengthAdjust="spacing" textLength="26" x="140.65" y="405.1543">Role</text><line style="stroke:#A80036;stroke-width:1.5;" x1="83.5" x2="192.5" y1="417" y2="417"/><text fill="#000000" font-family="sans-serif" font-size="11" lengthAdjust="spacing" textLength="99" x="88.5" y="431.2104">String : Character</text><line style="stroke:#A80036;stroke-width:1.5;" x1="83.5" x2="192.5" y1="437.8047" y2="437.8047"/><!--MD5=[2ca1536628238a7dc78c5d90808014f9]
class Session--><rect codeLine="45" fill="#FEFECE" filter="url(#fi5e0epi8fgz8)" height="99.2188" id="Session" style="stroke:#A80036;stroke-width:1.5;" width="165" x="232.5" y="366"/><ellipse cx="286.75" cy="382" fill="#ADD1B2" rx="11" ry="11" style="stroke:#A80036;stroke-width:1.0;"/><path d="M289.0938,377.6719 C288.1563,377.2344 287.5625,377.0938 286.6875,377.0938 C284.0625,377.0938 282.0625,379.1719 282.0625,381.8906 L282.0625,383.0156 C282.0625,385.5938 284.1719,387.4844 287.0625,387.4844 C288.2813,387.4844 289.4375,387.1875 290.1875,386.6406 C290.7656,386.2344 291.0938,385.7813 291.0938,385.3906 C291.0938,384.9375 290.7031,384.5469 290.2344,384.5469 C290.0156,384.5469 289.8125,384.625 289.625,384.8125 C289.1719,385.2969 289.1719,385.2969 288.9844,385.3906 C288.5625,385.6563 287.875,385.7813 287.1094,385.7813 C285.0625,385.7813 283.7656,384.6875 283.7656,382.9844 L283.7656,381.8906 C283.7656,380.1094 285.0156,378.7969 286.75,378.7969 C287.3281,378.7969 287.9375,378.9531 288.4063,379.2031 C288.8906,379.4844 289.0625,379.7031 289.1563,380.1094 C289.2188,380.5156 289.25,380.6406 289.3906,380.7656 C289.5313,380.9063 289.7656,381.0156 289.9844,381.0156 C290.25,381.0156 290.5156,380.875 290.6875,380.6563 C290.7969,380.5 290.8281,380.3125 290.8281,379.8906 L290.8281,378.4688 C290.8281,378.0313 290.8125,377.9063 290.7188,377.75 C290.5625,377.4844 290.2813,377.3438 289.9844,377.3438 C289.6875,377.3438 289.4844,377.4375 289.2656,377.75 L289.0938,377.6719 Z " fill="#000000"/><text fill="#000000" font-family="sans-serif" font-size="12" lengthAdjust="spacing" textLength="48" x="307.25" y="386.1543">Session</text><line style="stroke:#A80036;stroke-width:1.5;" x1="233.5" x2="396.5" y1="398" y2="398"/><text fill="#000000" font-family="sans-serif" font-size="11" lengthAdjust="spacing" textLength="56" x="238.5" y="412.2104">String : ID</text><text fill="#000000" font-family="sans-serif" font-size="11" lengthAdjust="spacing" textLength="153" x="238.5" y="425.0151">Date   : dateOfTheSession</text><text fill="#000000" font-family="sans-serif" font-size="11" lengthAdjust="spacing" textLength="80" x="238.5" y="437.8198">Room   : room</text><text fill="#000000" font-family="sans-serif" font-size="11" lengthAdjust="spacing" textLength="63" x="238.5" y="450.6245">Film   : film</text><line style="stroke:#A80036;stroke-width:1.5;" x1="233.5" x2="396.5" y1="457.2188" y2="457.2188"/><!--MD5=[d218c48b946d362ff1ecd879cabebcad]
class Room--><rect codeLine="52" fill="#FEFECE" filter="url(#fi5e0epi8fgz8)" height="99.2188" id="Room" style="stroke:#A80036;stroke-width:1.5;" width="123" x="255.5" y="574"/><ellipse cx="296.15" cy="590" fill="#ADD1B2" rx="11" ry="11" style="stroke:#A80036;stroke-width:1.0;"/><path d="M298.4938,585.6719 C297.5563,585.2344 296.9625,585.0938 296.0875,585.0938 C293.4625,585.0938 291.4625,587.1719 291.4625,589.8906 L291.4625,591.0156 C291.4625,593.5938 293.5719,595.4844 296.4625,595.4844 C297.6813,595.4844 298.8375,595.1875 299.5875,594.6406 C300.1656,594.2344 300.4938,593.7813 300.4938,593.3906 C300.4938,592.9375 300.1031,592.5469 299.6344,592.5469 C299.4156,592.5469 299.2125,592.625 299.025,592.8125 C298.5719,593.2969 298.5719,593.2969 298.3844,593.3906 C297.9625,593.6563 297.275,593.7813 296.5094,593.7813 C294.4625,593.7813 293.1656,592.6875 293.1656,590.9844 L293.1656,589.8906 C293.1656,588.1094 294.4156,586.7969 296.15,586.7969 C296.7281,586.7969 297.3375,586.9531 297.8063,587.2031 C298.2906,587.4844 298.4625,587.7031 298.5563,588.1094 C298.6188,588.5156 298.65,588.6406 298.7906,588.7656 C298.9313,588.9063 299.1656,589.0156 299.3844,589.0156 C299.65,589.0156 299.9156,588.875 300.0875,588.6563 C300.1969,588.5 300.2281,588.3125 300.2281,587.8906 L300.2281,586.4688 C300.2281,586.0313 300.2125,585.9063 300.1188,585.75 C299.9625,585.4844 299.6813,585.3438 299.3844,585.3438 C299.0875,585.3438 298.8844,585.4375 298.6656,585.75 L298.4938,585.6719 Z " fill="#000000"/><text fill="#000000" font-family="sans-serif" font-size="12" lengthAdjust="spacing" textLength="34" x="315.85" y="594.1543">Room</text><line style="stroke:#A80036;stroke-width:1.5;" x1="256.5" x2="377.5" y1="606" y2="606"/><text fill="#000000" font-family="sans-serif" font-size="11" lengthAdjust="spacing" textLength="56" x="261.5" y="620.2104">String : ID</text><text fill="#000000" font-family="sans-serif" font-size="11" lengthAdjust="spacing" textLength="107" x="261.5" y="633.0151">String : roomName</text><text fill="#000000" font-family="sans-serif" font-size="11" lengthAdjust="spacing" textLength="103" x="261.5" y="645.8198">Int : numberOfSits</text><text fill="#000000" font-family="sans-serif" font-size="11" lengthAdjust="spacing" textLength="111" x="261.5" y="658.6245">Int : nomberOfRows</text><line style="stroke:#A80036;stroke-width:1.5;" x1="256.5" x2="377.5" y1="665.2188" y2="665.2188"/><!--MD5=[ac6bea31e13c94c7baa9ad18feb7405e]
class Ticket--><rect codeLine="59" fill="#FEFECE" filter="url(#fi5e0epi8fgz8)" height="124.8281" id="Ticket" style="stroke:#A80036;stroke-width:1.5;" width="127" x="368.5" y="180"/><ellipse cx="410.05" cy="196" fill="#ADD1B2" rx="11" ry="11" style="stroke:#A80036;stroke-width:1.0;"/><path d="M412.3938,191.6719 C411.4563,191.2344 410.8625,191.0938 409.9875,191.0938 C407.3625,191.0938 405.3625,193.1719 405.3625,195.8906 L405.3625,197.0156 C405.3625,199.5938 407.4719,201.4844 410.3625,201.4844 C411.5813,201.4844 412.7375,201.1875 413.4875,200.6406 C414.0656,200.2344 414.3938,199.7813 414.3938,199.3906 C414.3938,198.9375 414.0031,198.5469 413.5344,198.5469 C413.3156,198.5469 413.1125,198.625 412.925,198.8125 C412.4719,199.2969 412.4719,199.2969 412.2844,199.3906 C411.8625,199.6563 411.175,199.7813 410.4094,199.7813 C408.3625,199.7813 407.0656,198.6875 407.0656,196.9844 L407.0656,195.8906 C407.0656,194.1094 408.3156,192.7969 410.05,192.7969 C410.6281,192.7969 411.2375,192.9531 411.7063,193.2031 C412.1906,193.4844 412.3625,193.7031 412.4563,194.1094 C412.5188,194.5156 412.55,194.6406 412.6906,194.7656 C412.8313,194.9063 413.0656,195.0156 413.2844,195.0156 C413.55,195.0156 413.8156,194.875 413.9875,194.6563 C414.0969,194.5 414.1281,194.3125 414.1281,193.8906 L414.1281,192.4688 C414.1281,192.0313 414.1125,191.9063 414.0188,191.75 C413.8625,191.4844 413.5813,191.3438 413.2844,191.3438 C412.9875,191.3438 412.7844,191.4375 412.5656,191.75 L412.3938,191.6719 Z " fill="#000000"/><text fill="#000000" font-family="sans-serif" font-size="12" lengthAdjust="spacing" textLength="36" x="429.95" y="200.1543">Ticket</text><line style="stroke:#A80036;stroke-width:1.5;" x1="369.5" x2="494.5" y1="212" y2="212"/><text fill="#000000" font-family="sans-serif" font-size="11" lengthAdjust="spacing" textLength="56" x="374.5" y="226.2104">String : ID</text><text fill="#000000" font-family="sans-serif" font-size="11" lengthAdjust="spacing" textLength="80" x="374.5" y="239.0151">Double : price</text><text fill="#000000" font-family="sans-serif" font-size="11" lengthAdjust="spacing" textLength="99" x="374.5" y="251.8198">Session : session</text><text fill="#000000" font-family="sans-serif" font-size="11" lengthAdjust="spacing" textLength="115" x="374.5" y="264.6245">TicketStatus : status</text><text fill="#000000" font-family="sans-serif" font-size="11" lengthAdjust="spacing" textLength="45" x="374.5" y="277.4292">Int : row</text><text fill="#000000" font-family="sans-serif" font-size="11" lengthAdjust="spacing" textLength="66" x="374.5" y="290.2339">Int : column</text><line style="stroke:#A80036;stroke-width:1.5;" x1="369.5" x2="494.5" y1="296.8281" y2="296.8281"/><!--MD5=[6395256d0a50d27ca1f6d8b64b5d949b]
class TicketStatus--><rect codeLine="68" fill="#FEFECE" filter="url(#fi5e0epi8fgz8)" height="86.4141" id="TicketStatus" style="stroke:#A80036;stroke-width:1.5;" width="105" x="432.5" y="372.5"/><ellipse cx="447.5" cy="388.5" fill="#EB937F" rx="11" ry="11" style="stroke:#A80036;stroke-width:1.0;"/><path d="M446.2969,389.375 L447.75,389.375 L447.75,389.4844 C447.75,389.8906 447.7813,390.0469 447.8594,390.2031 C448.0156,390.4531 448.2969,390.6094 448.5938,390.6094 C448.8438,390.6094 449.1094,390.4688 449.2656,390.25 C449.3906,390.0938 449.4219,389.9375 449.4219,389.4844 L449.4219,387.5625 C449.4219,387.4063 449.4219,387.3594 449.4063,387.2031 C449.3438,386.7344 449.0313,386.4219 448.5781,386.4219 C448.3281,386.4219 448.0625,386.5625 447.8906,386.7813 C447.7813,386.9531 447.75,387.1094 447.75,387.5625 L447.75,387.6875 L446.2969,387.6875 L446.2969,385.2813 L450.2813,385.2813 L450.2813,386.1406 C450.2813,386.5469 450.3125,386.7188 450.3906,386.875 C450.5625,387.125 450.8438,387.2813 451.125,387.2813 C451.3906,387.2813 451.6563,387.1406 451.8281,386.9219 C451.9375,386.75 451.9688,386.6094 451.9688,386.1406 L451.9688,383.5938 L444.3438,383.5938 C443.9063,383.5938 443.7813,383.6094 443.625,383.7031 C443.375,383.8594 443.2188,384.1563 443.2188,384.4375 C443.2188,384.7188 443.3594,384.9688 443.5781,385.1406 C443.7344,385.25 443.9219,385.2813 444.3438,385.2813 L444.5938,385.2813 L444.5938,391.7969 L444.3438,391.7969 C443.9375,391.7969 443.7813,391.8125 443.625,391.9219 C443.375,392.0938 443.2188,392.3594 443.2188,392.6563 C443.2188,392.9219 443.3594,393.1719 443.5781,393.3281 C443.7188,393.4531 443.9531,393.5 444.3438,393.5 L452.3438,393.5 L452.3438,390.9219 C452.3438,390.4844 452.3125,390.3438 452.2344,390.1875 C452.0625,389.9375 451.7813,389.7813 451.5,389.7813 C451.2344,389.7813 450.9688,389.8906 450.7969,390.1406 C450.6875,390.2969 450.6563,390.4375 450.6563,390.9219 L450.6563,391.7969 L446.2969,391.7969 L446.2969,389.375 Z " fill="#000000"/><text fill="#000000" font-family="sans-serif" font-size="12" lengthAdjust="spacing" textLength="73" x="461.5" y="392.6543">TicketStatus</text><line style="stroke:#A80036;stroke-width:1.5;" x1="433.5" x2="536.5" y1="404.5" y2="404.5"/><text fill="#000000" font-family="sans-serif" font-size="11" lengthAdjust="spacing" textLength="60" x="438.5" y="418.7104">RESERVED</text><text fill="#000000" font-family="sans-serif" font-size="11" lengthAdjust="spacing" textLength="26" x="438.5" y="431.5151">PAID</text><text fill="#000000" font-family="sans-serif" font-size="11" lengthAdjust="spacing" textLength="61" x="438.5" y="444.3198">CANCELED</text><line style="stroke:#A80036;stroke-width:1.5;" x1="433.5" x2="536.5" y1="450.9141" y2="450.9141"/><!--MD5=[12b274bebc6a5e1e4fe84d42a57243ba]
reverse link Person to Director--><path codeLine="29" d="M41.2589,139.049 C33.6195,170.408 27,207.415 27,241.5 C27,241.5 27,241.5 27,624.5 C27,681.433 46.961,745.4786 60.2943,781.9081 " fill="none" id="Person-backto-Director" style="stroke:#A80036;stroke-width:1.0;"/><polygon fill="none" points="34.572,136.948,46.3669,119.345,48.124,140.462,34.572,136.948" style="stroke:#A80036;stroke-width:1.0;"/><!--MD5=[d0c6aa3d40dbe63df0f756ac18e30fe4]
reverse link Person to Actor--><path codeLine="30" d="M93.6399,138.1 C104.0221,164.055 115.092,191.73 123.164,211.911 " fill="none" id="Person-backto-Actor" style="stroke:#A80036;stroke-width:1.0;"/><polygon fill="none" points="87.0042,140.358,86.0757,119.189,100.0029,135.159,87.0042,140.358" style="stroke:#A80036;stroke-width:1.0;"/><!--MD5=[c74c9cd0aa85dd6588b7b60acb5108cb]
reverse link Film to Director--><path codeLine="32" d="M111.259,717.378 C101.4865,740.808 91.6919,764.29 84.3304,781.9386 " fill="none" id="Film-backto-Director" style="stroke:#A80036;stroke-width:1.0;"/><polygon fill="#FFFFFF" points="116.355,705.162,110.3536,709.1599,111.7358,716.2373,117.7372,712.2394,116.355,705.162" style="stroke:#A80036;stroke-width:1.0;"/><text fill="#000000" font-family="sans-serif" font-size="13" lengthAdjust="spacing" textLength="31" x="103" y="748.0669">films</text><!--MD5=[e15581b076d4624e77a375e9f06d8f6f]
reverse link Actor to Role--><path codeLine="39" d="M135.756,286.604 C136.294,317.26 137.003,357.652 137.478,384.769 " fill="none" id="Actor-backto-Role" style="stroke:#A80036;stroke-width:1.0;"/><polygon fill="#A80036" points="135.523,273.286,131.6291,279.3554,135.734,285.2841,139.6279,279.2147,135.523,273.286" style="stroke:#A80036;stroke-width:1.0;"/><!--MD5=[27ff6c5bde465eeb7fa5b1f7fe8b4c14]
reverse link Role to Film--><path codeLine="41" d="M140.49,459.242 C141.882,483.134 143.662,513.696 145.305,541.903 " fill="none" id="Role-backto-Film" style="stroke:#A80036;stroke-width:1.0;"/><polygon fill="#FFFFFF" points="139.719,446.015,136.0745,452.2374,140.4166,457.9947,144.061,451.7723,139.719,446.015" style="stroke:#A80036;stroke-width:1.0;"/><text fill="#000000" font-family="sans-serif" font-size="13" lengthAdjust="spacing" textLength="29" x="145" y="508.0669">Cast</text><!--MD5=[fa13a6ade77e6764bc05770ceefb7a1c]
link Session to Film--><path codeLine="76" d="M276.106,465.058 C258.742,486.737 237.762,512.931 217.939,537.679 " fill="none" id="Session-to-Film" style="stroke:#A80036;stroke-width:1.0;"/><polygon fill="#A80036" points="214.768,541.638,223.5162,537.1136,217.8936,537.7353,217.2719,532.1127,214.768,541.638" style="stroke:#A80036;stroke-width:1.0;"/><!--MD5=[0165d0e002fab6e478b05ac489c3e487]
link Session to Room--><path codeLine="77" d="M315.471,465.058 C315.774,496.221 316.167,536.715 316.479,568.831 " fill="none" id="Session-to-Room" style="stroke:#A80036;stroke-width:1.0;"/><polygon fill="#A80036" points="316.528,573.911,320.4404,564.8726,316.4794,568.9112,312.4408,564.9503,316.528,573.911" style="stroke:#A80036;stroke-width:1.0;"/><!--MD5=[44f84b7602f362c3db1637859135c100]
link Ticket to Session--><path codeLine="79" d="M389.76,305.235 C377.149,323.667 363.442,343.7 351.251,361.518 " fill="none" id="Ticket-to-Session" style="stroke:#A80036;stroke-width:1.0;"/><polygon fill="#A80036" points="348.185,365.998,356.5676,360.8276,351.0078,361.871,349.9644,356.3112,348.185,365.998" style="stroke:#A80036;stroke-width:1.0;"/><!--MD5=[b58d93e04cfc8eaf29daaa2f5c8c28e8]
link Ticket to TicketStatus--><path codeLine="80" d="M451.134,305.235 C457.503,325.784 464.489,348.322 470.452,367.563 " fill="none" id="Ticket-to-TicketStatus" style="stroke:#A80036;stroke-width:1.0;"/><polygon fill="#A80036" points="471.946,372.381,473.1026,362.6003,470.4659,367.6051,465.4611,364.9684,471.946,372.381" style="stroke:#A80036;stroke-width:1.0;"/><!--MD5=[926fb4f3b3b6a8cb425d14e8cf44030c]
@startuml
class Film {
  String : ID
  String : Name
  Date : ReleaseDate
  Director :Director
  Int : DurationInMinutes
  String : Abstract 
  List<Role> : Cast
  FilmType : TypeOfFilm
  Double : IMDBNote
}

abstract class Person {
  String : ID
  String : FirstName
  String : LastName
  Date : Birthdate
  Date : DeathDate
}

class Director {
  List<Film> films
}

class Actor {
  List<Role> roles
}

Person <|- - Director
Person <|- - Actor

Film o- - Director : films


class Role {
  String : Character
}

Actor *- - Role

Role o- - Film : Cast



class Session {
  String : ID
  Date   : dateOfTheSession
  Room   : room
  Film   : film
}

class Room {
  String : ID
  String : roomName
  Int : numberOfSits
  Int : nomberOfRows
}

class Ticket {
  String : ID
  Double : price
  Session : session
  TicketStatus : status
  Int : row
  Int : column
}

enum TicketStatus {
  RESERVED
  PAID
  CANCELED
}



Session - -> Film
Session - -> Room

Ticket - -> Session
Ticket - -> TicketStatus
@enduml

PlantUML version 1.2021.13beta3(Unknown compile time)
(GPL source distribution)
Java Runtime: Java(TM) SE Runtime Environment
JVM: Java HotSpot(TM) 64-Bit Server VM
Default Encoding: UTF-8
Language: en
Country: US
--></g></svg>